<svg width="24" height="25" viewBox="0 0 24 25" fill="none" xmlns="http://www.w3.org/2000/svg">
<path fill-rule="evenodd" clip-rule="evenodd" d="M0.333496 12.5174C0.333496 6.37156 5.24516 0.833252 12.0235 0.833252C18.6502 0.833252 23.6668 6.2664 23.6668 12.4824C23.6668 19.6915 17.7868 24.1666 12.0002 24.1666C10.0868 24.1666 7.9635 23.6525 6.26016 22.6476C5.66516 22.2854 5.1635 22.0167 4.52183 22.227L2.16516 22.9281C1.57016 23.115 1.0335 22.6476 1.2085 22.0167L1.99016 19.3994C2.1185 19.0372 2.09516 18.6516 1.9085 18.3479C0.905163 16.5018 0.333496 14.4804 0.333496 12.5174ZM10.4835 12.5174C10.4835 13.347 11.1485 14.013 11.9768 14.0247C12.8052 14.0247 13.4702 13.347 13.4702 12.5291C13.4702 11.6996 12.8052 11.0336 11.9768 11.0336C11.1602 11.0219 10.4835 11.6996 10.4835 12.5174ZM15.8618 12.5291C15.8618 13.347 16.5268 14.0247 17.3552 14.0247C18.1835 14.0247 18.8485 13.347 18.8485 12.5291C18.8485 11.6996 18.1835 11.0336 17.3552 11.0336C16.5268 11.0336 15.8618 11.6996 15.8618 12.5291ZM6.5985 14.0247C5.78183 14.0247 5.10516 13.347 5.10516 12.5291C5.10516 11.6996 5.77016 11.0336 6.5985 11.0336C7.42683 11.0336 8.09183 11.6996 8.09183 12.5291C8.09183 13.347 7.42683 14.013 6.5985 14.0247Z" fill="#6949FF"/>
</svg>
