<svg width="22" height="24" viewBox="0 0 22 24" fill="none" xmlns="http://www.w3.org/2000/svg">
<path fill-rule="evenodd" clip-rule="evenodd" d="M11.0002 9.0835C12.6112 9.0835 13.9168 10.3891 13.9168 12.0002C13.9168 13.6112 12.6112 14.9168 11.0002 14.9168C9.38914 14.9168 8.0835 13.6112 8.0835 12.0002C8.0835 10.3891 9.38914 9.0835 11.0002 9.0835Z" stroke="#212121" stroke-width="1.5" stroke-linecap="round" stroke-linejoin="round"/>
<path fill-rule="evenodd" clip-rule="evenodd" d="M20.5295 6.4587V6.4587C19.732 5.06774 17.9666 4.59179 16.5868 5.39503C15.3866 6.09224 13.8866 5.21986 13.8866 3.82429C13.8866 2.21898 12.5937 0.916748 10.9999 0.916748V0.916748C9.40609 0.916748 8.1132 2.21898 8.1132 3.82429C8.1132 5.21986 6.61322 6.09224 5.41416 5.39503C4.03317 4.59179 2.26775 5.06774 1.47028 6.4587C0.67395 7.84967 1.14648 9.62784 2.52747 10.4299C3.72654 11.1283 3.72654 12.8719 2.52747 13.5702C1.14648 14.3735 0.67395 16.1517 1.47028 17.5415C2.26775 18.9324 4.03317 19.4084 5.41301 18.6063H5.41416C6.61322 17.9079 8.1132 18.7803 8.1132 20.1759V20.1759C8.1132 21.7812 9.40609 23.0834 10.9999 23.0834V23.0834C12.5937 23.0834 13.8866 21.7812 13.8866 20.1759V20.1759C13.8866 18.7803 15.3866 17.9079 16.5868 18.6063C17.9666 19.4084 19.732 18.9324 20.5295 17.5415C21.327 16.1517 20.8533 14.3735 19.4734 13.5702H19.4723C18.2732 12.8719 18.2732 11.1283 19.4734 10.4299C20.8533 9.62784 21.327 7.84967 20.5295 6.4587Z" stroke="#212121" stroke-width="1.5" stroke-linecap="round" stroke-linejoin="round"/>
</svg>
