<svg width="24" height="24" viewBox="0 0 24 24" fill="none" xmlns="http://www.w3.org/2000/svg">
<path d="M6.07031 15.3295L9.56215 10.7924L13.5451 13.919L16.9623 9.50903" stroke="#212121" stroke-width="1.5" stroke-linecap="round" stroke-linejoin="round"/>
<path fill-rule="evenodd" clip-rule="evenodd" d="M20.945 0.741699C22.184 0.741699 23.1873 1.74503 23.1873 2.98403C23.1873 4.22187 22.184 5.22637 20.945 5.22637C19.706 5.22637 18.7026 4.22187 18.7026 2.98403C18.7026 1.74503 19.706 0.741699 20.945 0.741699Z" stroke="#212121" stroke-width="1.5" stroke-linecap="round" stroke-linejoin="round"/>
<path d="M22.2149 8.81377C22.3701 9.85793 22.4412 11.0339 22.4412 12.3534C22.4412 20.4478 19.7439 23.1451 11.6496 23.1451C3.55641 23.1451 0.85791 20.4478 0.85791 12.3534C0.85791 4.26027 3.55641 1.56177 11.6496 1.56177C12.9446 1.56177 14.1007 1.6306 15.1297 1.77993" stroke="#212121" stroke-width="1.5" stroke-linecap="round" stroke-linejoin="round"/>
</svg>
